<svg width="589" height="710" viewBox="0 0 589 710" fill="none" xmlns="http://www.w3.org/2000/svg">
<path d="M434.331 96.0827C425.279 91.1556 413.946 94.4941 409.009 103.551C404.081 112.609 407.425 123.937 416.477 128.869C499.332 173.962 550.797 260.489 550.797 354.669C550.797 448.849 499.328 535.375 416.504 580.455C393.879 592.731 369.395 601.466 344.088 606.439L367.869 582.658C375.161 575.372 375.161 563.554 367.875 556.262C360.583 548.97 348.765 548.97 341.473 556.262L280.864 616.861C277.364 620.361 275.395 625.106 275.395 630.059C275.395 635.012 277.359 639.757 280.864 643.257L341.468 703.866C345.109 707.512 349.89 709.335 354.666 709.335C359.442 709.335 364.223 707.512 367.864 703.866C375.155 696.58 375.155 684.762 367.869 677.47L336.077 645.673C370.478 640.74 403.858 629.787 434.331 613.251C529.195 561.611 588.131 462.531 588.131 354.665C588.131 246.798 529.199 147.718 434.331 96.0779L434.331 96.0827Z" fill="#CF8F24"/>
<path d="M312.731 79.276C312.731 74.3229 310.768 69.5781 307.263 66.0781L246.659 5.4688C239.372 -1.82293 227.549 -1.82293 220.263 5.4688C212.971 12.7552 212.971 24.5728 220.257 31.8648L252.117 63.7248C217.696 68.6311 184.289 79.5368 153.8 96.0795C58.936 147.725 0 246.799 0 354.666C0 462.533 58.932 561.613 153.8 613.253C156.54 614.748 159.607 615.529 162.727 615.529H162.805C173.118 615.529 181.431 607.175 181.431 596.862C181.431 589.602 177.259 583.299 171.191 580.217C88.6123 535.05 37.3376 448.675 37.3376 354.67C37.3376 260.493 88.8069 173.963 171.631 128.883C194.267 116.602 218.762 107.853 244.084 102.862L220.267 126.679C212.975 133.966 212.975 145.783 220.262 153.075C223.908 156.721 228.689 158.544 233.465 158.544C238.241 158.544 243.022 156.721 246.663 153.075L307.267 92.4768C310.767 88.9768 312.735 84.2268 312.735 79.2789L312.731 79.276Z" fill="#CF8F24"/>
</svg>
